<svg width="451" height="508" viewBox="0 0 451 508" fill="none" xmlns="http://www.w3.org/2000/svg">
<path fill-rule="evenodd" clip-rule="evenodd" d="M391.842 162.351C397.001 165.914 403.258 168 410.002 168C427.675 168 442.002 153.673 442.002 136C442.002 118.327 427.675 104 410.002 104C403.259 104 397.002 106.086 391.843 109.648C370.36 121.402 326.002 132.267 326.002 132.267L326.002 139.733C326.002 139.733 370.358 150.597 391.842 162.351Z" fill="#EB5A35"/>
<path fill-rule="evenodd" clip-rule="evenodd" d="M348.067 215.331C349.196 221.498 352.145 227.398 356.914 232.167C369.411 244.663 389.672 244.663 402.169 232.167C414.665 219.67 414.665 199.409 402.169 186.912C397.4 182.143 391.502 179.195 385.335 178.065C361.832 171.186 322.784 147.502 322.784 147.502L317.504 152.782C317.504 152.782 341.187 191.828 348.067 215.331Z" fill="#EB5A35"/>
<path fill-rule="evenodd" clip-rule="evenodd" d="M279.651 221.84C276.088 226.999 274.002 233.256 274.002 240C274.002 257.673 288.329 272 306.002 272C323.675 272 338.002 257.673 338.002 240C338.002 233.257 335.916 227 332.354 221.841C320.6 200.358 309.735 156 309.735 156L302.269 156C302.269 156 291.405 200.356 279.651 221.84Z" fill="#EB5A35"/>
<path fill-rule="evenodd" clip-rule="evenodd" d="M226.67 178.065C220.503 179.194 214.604 182.143 209.835 186.912C197.338 199.409 197.338 219.67 209.835 232.167C222.332 244.663 242.593 244.663 255.09 232.167C259.858 227.398 262.807 221.5 263.936 215.333C270.816 191.83 294.499 152.782 294.499 152.782L289.219 147.502C289.219 147.502 250.173 171.185 226.67 178.065Z" fill="#EB5A35"/>
<path fill-rule="evenodd" clip-rule="evenodd" d="M220.16 109.649C215.001 106.086 208.744 104 202 104C184.327 104 170 118.327 170 136C170 153.673 184.327 168 202 168C208.743 168 215 165.914 220.159 162.352C241.642 150.598 286 139.733 286 139.733L286 132.267C286 132.267 241.644 121.403 220.16 109.649Z" fill="#EB5A35"/>
<path fill-rule="evenodd" clip-rule="evenodd" d="M263.935 56.669C262.806 50.5019 259.857 44.6024 255.088 39.8337C242.591 27.3369 222.33 27.3369 209.833 39.8336C197.336 52.3304 197.336 72.5917 209.833 85.0885C214.602 89.8568 220.5 92.8057 226.667 93.9352C250.17 100.815 289.218 124.498 289.218 124.498L294.497 119.218C294.497 119.218 270.815 80.1721 263.935 56.669Z" fill="#EB5A35"/>
<path fill-rule="evenodd" clip-rule="evenodd" d="M332.351 50.1604C335.914 45.0011 338 38.7443 338 32.0002C338 14.3271 323.673 0.000248483 306 0.000246938C288.327 0.000245393 274 14.3271 274 32.0002C274 38.7437 276.086 44.9999 279.648 50.159C291.402 71.6425 302.267 116 302.267 116L309.733 116C309.733 116 320.597 71.6445 332.351 50.1604Z" fill="#EB5A35"/>
<path fill-rule="evenodd" clip-rule="evenodd" d="M385.334 93.9352C391.501 92.806 397.401 89.857 402.169 85.0882C414.666 72.5914 414.666 52.3301 402.169 39.8333C389.673 27.3366 369.411 27.3366 356.914 39.8333C352.146 44.6017 349.197 50.5004 348.068 56.667C341.188 80.1698 317.505 119.218 317.505 119.218L322.785 124.498C322.785 124.498 361.831 100.815 385.334 93.9352Z" fill="#EB5A35"/>
<path d="M303.458 110.653C303.717 107.533 308.283 107.533 308.542 110.653V110.653C308.754 113.207 312.178 113.888 313.352 111.609V111.609C314.785 108.826 319.003 110.573 318.048 113.555V113.555C317.267 115.996 320.17 117.936 322.126 116.279V116.279C324.515 114.256 327.744 117.485 325.721 119.874V119.874C324.064 121.83 326.004 124.733 328.445 123.952V123.952C331.427 122.997 333.174 127.215 330.391 128.648V128.648C328.112 129.822 328.793 133.246 331.347 133.458V133.458C334.467 133.717 334.467 138.283 331.347 138.542V138.542C328.793 138.754 328.112 142.178 330.391 143.352V143.352C333.174 144.785 331.427 149.003 328.445 148.048V148.048C326.004 147.267 324.064 150.17 325.721 152.126V152.126C327.744 154.515 324.515 157.744 322.126 155.721V155.721C320.17 154.064 317.267 156.004 318.048 158.445V158.445C319.003 161.427 314.785 163.174 313.352 160.391V160.391C312.178 158.112 308.754 158.793 308.542 161.347V161.347C308.283 164.467 303.717 164.467 303.458 161.347V161.347C303.246 158.793 299.822 158.112 298.648 160.391V160.391C297.215 163.174 292.997 161.427 293.952 158.445V158.445C294.733 156.004 291.83 154.064 289.874 155.721V155.721C287.485 157.744 284.256 154.515 286.279 152.126V152.126C287.936 150.17 285.996 147.267 283.555 148.048V148.048C280.573 149.003 278.826 144.785 281.609 143.352V143.352C283.888 142.178 283.207 138.754 280.653 138.542V138.542C277.533 138.283 277.533 133.717 280.653 133.458V133.458C283.207 133.246 283.888 129.822 281.609 128.648V128.648C278.826 127.215 280.573 122.997 283.555 123.952V123.952C285.996 124.733 287.936 121.83 286.279 119.874V119.874C284.256 117.485 287.485 114.256 289.874 116.279V116.279C291.83 117.936 294.733 115.996 293.952 113.555V113.555C292.997 110.573 297.215 108.826 298.648 111.609V111.609C299.822 113.888 303.246 113.207 303.458 110.653V110.653Z" fill="#F4B442"/>
<path d="M335.699 106.301L306.001 136" stroke="#DC8433" stroke-width="2"/>
<circle cx="335.699" cy="106.301" r="6" transform="rotate(45 335.699 106.301)" fill="#F4B442"/>
<path d="M344.803 119.927L306 136" stroke="#DC8433" stroke-width="2"/>
<circle cx="344.804" cy="119.927" r="6" transform="rotate(67.5 344.804 119.927)" fill="#F4B442"/>
<path d="M348 136L306 136" stroke="#DC8433" stroke-width="2"/>
<circle cx="348" cy="136" r="6" transform="rotate(90 348 136)" fill="#F4B442"/>
<path d="M344.803 152.073L306 136" stroke="#DC8433" stroke-width="2"/>
<circle cx="344.803" cy="152.073" r="6" transform="rotate(112.5 344.803 152.073)" fill="#F4B442"/>
<path d="M335.699 165.698L306.001 136" stroke="#DC8433" stroke-width="2"/>
<circle cx="335.698" cy="165.698" r="6" transform="rotate(135 335.698 165.698)" fill="#F4B442"/>
<path d="M322.072 174.803L306 136" stroke="#DC8433" stroke-width="2"/>
<circle cx="322.073" cy="174.803" r="6" transform="rotate(157.5 322.073 174.803)" fill="#F4B442"/>
<path d="M306 178L306 136" stroke="#DC8433" stroke-width="2"/>
<circle cx="306" cy="178" r="6" transform="rotate(180 306 178)" fill="#F4B442"/>
<path d="M289.928 174.803L306 136" stroke="#DC8433" stroke-width="2"/>
<circle cx="289.929" cy="174.803" r="6" transform="rotate(-157.5 289.929 174.803)" fill="#F4B442"/>
<path d="M276.303 165.698L306.001 136" stroke="#DC8433" stroke-width="2"/>
<circle cx="276.303" cy="165.699" r="6" transform="rotate(-135 276.303 165.699)" fill="#F4B442"/>
<path d="M267.199 152.073L306.002 136" stroke="#DC8433" stroke-width="2"/>
<circle cx="267.198" cy="152.073" r="6" transform="rotate(-112.5 267.198 152.073)" fill="#F4B442"/>
<path d="M264 136L306 136" stroke="#DC8433" stroke-width="2"/>
<circle cx="264" cy="136" r="6" transform="rotate(-90 264 136)" fill="#F4B442"/>
<path d="M267.199 119.927L306.002 136" stroke="#DC8433" stroke-width="2"/>
<circle cx="267.199" cy="119.927" r="6" transform="rotate(-67.5 267.199 119.927)" fill="#F4B442"/>
<path d="M276.303 106.302L306.001 136" stroke="#DC8433" stroke-width="2"/>
<circle cx="276.304" cy="106.302" r="6" transform="rotate(-45 276.304 106.302)" fill="#F4B442"/>
<path d="M289.93 97.1971L306.002 136" stroke="#DC8433" stroke-width="2"/>
<circle cx="289.93" cy="97.1971" r="6" transform="rotate(-22.5 289.93 97.1971)" fill="#F4B442"/>
<path d="M306.002 94V136" stroke="#DC8433" stroke-width="2"/>
<circle cx="306.002" cy="94" r="6" fill="#F4B442"/>
<path d="M322.072 97.197L306 136" stroke="#DC8433" stroke-width="2"/>
<circle cx="322.071" cy="97.197" r="6" transform="rotate(22.5 322.071 97.197)" fill="#F4B442"/>
<path d="M266.634 451.366C284.991 440.095 325.918 409.087 342.767 375.233L266.634 451.366Z" fill="white"/>
<path d="M266.635 451.367C277.906 433.01 308.914 392.084 342.768 375.234L266.635 451.367Z" fill="white"/>
<path d="M343.236 374.765C361.593 363.493 402.519 332.486 419.369 298.632L343.236 374.765Z" fill="white"/>
<path d="M343.236 374.766C354.508 356.409 385.515 315.482 419.369 298.633L343.236 374.766Z" fill="white"/>
<path d="M243.222 416.329C264.495 412.94 314.172 399.955 342.694 375.126L243.222 416.329Z" fill="white"/>
<path d="M243.222 416.329C260.661 403.683 304.969 377.738 342.694 375.126L243.222 416.329Z" fill="white"/>
<path d="M343.307 374.873C364.58 371.484 414.256 358.499 442.779 333.67L343.307 374.873Z" fill="white"/>
<path d="M343.307 374.873C360.745 362.227 405.054 336.282 442.779 333.67L343.307 374.873Z" fill="white"/>
<path d="M235.001 374.999C255.952 380.009 306.816 387.023 342.669 374.999L235.001 374.999Z" fill="white"/>
<path d="M235.001 375C255.952 369.99 306.816 362.976 342.669 375L235.001 375Z" fill="white"/>
<path d="M343.332 374.999C364.282 380.009 415.147 387.023 451 374.999L343.332 374.999Z" fill="white"/>
<path d="M343.332 375C364.282 369.99 415.147 362.976 451 375L343.332 375Z" fill="white"/>
<path d="M243.222 333.67C260.66 346.316 304.969 372.261 342.694 374.872L243.222 333.67Z" fill="white"/>
<path d="M243.221 333.67C264.494 337.059 314.171 350.044 342.694 374.873L243.221 333.67Z" fill="white"/>
<path d="M343.306 375.126C360.744 387.772 405.053 413.717 442.778 416.329L343.306 375.126Z" fill="white"/>
<path d="M343.306 375.127C364.579 378.516 414.255 391.501 442.778 416.329L343.306 375.127Z" fill="white"/>
<path d="M266.633 298.632C277.905 316.989 308.912 357.915 342.766 374.765L266.633 298.632Z" fill="white"/>
<path d="M266.633 298.633C284.99 309.904 325.916 340.911 342.766 374.765L266.633 298.633Z" fill="white"/>
<path d="M343.235 375.234C354.506 393.591 385.513 434.517 419.367 451.367L343.235 375.234Z" fill="white"/>
<path d="M343.234 375.234C361.591 386.506 402.517 417.513 419.367 451.367L343.234 375.234Z" fill="white"/>
<path d="M301.67 275.221C305.059 296.494 318.044 346.171 342.873 374.694L301.67 275.221Z" fill="white"/>
<path d="M301.669 275.221C314.315 292.66 340.26 336.969 342.872 374.694L301.669 275.221Z" fill="white"/>
<path d="M343.126 375.306C346.515 396.579 359.5 446.256 384.329 474.778L343.126 375.306Z" fill="white"/>
<path d="M343.126 375.306C355.772 392.745 381.717 437.053 384.329 474.779L343.126 375.306Z" fill="white"/>
<path d="M343 267C337.99 287.951 330.976 338.816 343 374.669L343 267Z" fill="white"/>
<path d="M342.999 267C348.009 287.951 355.023 338.816 342.999 374.669L342.999 267Z" fill="white"/>
<path d="M342.999 375.331C337.989 396.282 330.975 447.146 342.999 482.999L342.999 375.331Z" fill="white"/>
<path d="M342.999 375.331C348.009 396.282 355.023 447.146 342.999 482.999L342.999 375.331Z" fill="white"/>
<path d="M384.328 275.222C371.682 292.66 345.737 336.969 343.125 374.694L384.328 275.222Z" fill="white"/>
<path d="M384.328 275.221C380.939 296.495 367.954 346.171 343.125 374.694L384.328 275.221Z" fill="white"/>
<path d="M342.871 375.306C330.225 392.745 304.28 437.053 301.669 474.779L342.871 375.306Z" fill="white"/>
<path d="M342.871 375.306C339.482 396.579 326.497 446.256 301.668 474.778L342.871 375.306Z" fill="white"/>
<path d="M419.365 298.633C401.009 309.905 360.082 340.912 343.233 374.766L419.365 298.633Z" fill="white"/>
<path d="M419.365 298.633C408.093 316.99 377.086 357.916 343.232 374.766L419.365 298.633Z" fill="white"/>
<path d="M342.764 375.234C324.407 386.506 283.481 417.513 266.631 451.367L342.764 375.234Z" fill="white"/>
<path d="M342.763 375.234C331.492 393.591 300.484 434.517 266.63 451.367L342.763 375.234Z" fill="white"/>
<path d="M442.776 333.671C421.503 337.06 371.826 350.045 343.304 374.874L442.776 333.671Z" fill="white"/>
<path d="M442.776 333.67C425.337 346.316 381.029 372.261 343.303 374.873L442.776 333.67Z" fill="white"/>
<path d="M342.691 375.127C321.418 378.516 271.741 391.501 243.219 416.33L342.691 375.127Z" fill="white"/>
<path d="M342.691 375.126C325.252 387.772 280.944 413.717 243.219 416.329L342.691 375.126Z" fill="white"/>
<path d="M450.999 375C430.048 369.99 379.184 362.977 343.331 375L450.999 375Z" fill="white"/>
<path d="M450.999 375C430.048 380.01 379.184 387.024 343.331 375L450.999 375Z" fill="white"/>
<path d="M342.668 375C321.718 369.99 270.853 362.976 235 375L342.668 375Z" fill="white"/>
<path d="M342.668 375C321.718 380.009 270.853 387.023 235 375L342.668 375Z" fill="white"/>
<path d="M442.777 416.33C425.338 403.684 381.029 377.739 343.304 375.127L442.777 416.33Z" fill="white"/>
<path d="M442.777 416.329C421.504 412.94 371.827 399.955 343.304 375.126L442.777 416.329Z" fill="white"/>
<path d="M342.692 374.873C325.253 362.227 280.945 336.282 243.22 333.67L342.692 374.873Z" fill="white"/>
<path d="M342.692 374.873C321.419 371.484 271.742 358.499 243.22 333.67L342.692 374.873Z" fill="white"/>
<path d="M419.365 451.367C408.093 433.01 377.086 392.084 343.232 375.234L419.365 451.367Z" fill="white"/>
<path d="M419.365 451.367C401.008 440.095 360.082 409.088 343.232 375.234L419.365 451.367Z" fill="white"/>
<path d="M342.764 374.765C331.492 356.409 300.485 315.482 266.631 298.633L342.764 374.765Z" fill="white"/>
<path d="M342.764 374.765C324.407 363.493 283.481 332.486 266.631 298.632L342.764 374.765Z" fill="white"/>
<path d="M384.326 474.778C380.937 453.505 367.952 403.828 343.123 375.306L384.326 474.778Z" fill="white"/>
<path d="M384.326 474.778C371.68 457.339 345.735 413.031 343.124 375.306L384.326 474.778Z" fill="white"/>
<path d="M342.87 374.694C339.481 353.421 326.496 303.744 301.667 275.221L342.87 374.694Z" fill="white"/>
<path d="M342.87 374.693C330.224 357.255 304.279 312.946 301.667 275.221L342.87 374.693Z" fill="white"/>
<path d="M342.997 482.999C348.006 462.048 355.02 411.184 342.996 375.331L342.997 482.999Z" fill="white"/>
<path d="M342.997 482.999C337.987 462.048 330.973 411.184 342.997 375.331L342.997 482.999Z" fill="white"/>
<path d="M342.997 374.668C348.007 353.718 355.021 302.853 342.997 267L342.997 374.668Z" fill="white"/>
<path d="M342.997 374.668C337.987 353.717 330.974 302.853 342.997 267L342.997 374.668Z" fill="white"/>
<path d="M301.672 474.778C314.318 457.339 340.263 413.031 342.875 375.305L301.672 474.778Z" fill="white"/>
<path d="M301.672 474.778C305.061 453.505 318.046 403.828 342.875 375.306L301.672 474.778Z" fill="white"/>
<path d="M343.128 374.693C355.774 357.255 381.719 312.946 384.331 275.221L343.128 374.693Z" fill="white"/>
<path d="M343.129 374.694C346.518 353.42 359.503 303.744 384.332 275.221L343.129 374.694Z" fill="white"/>
<path d="M341.23 357.347C341.41 355.175 344.59 355.175 344.77 357.347V357.347C344.918 359.126 347.303 359.601 348.12 358.014V358.014C349.118 356.075 352.056 357.292 351.391 359.368V359.368C350.846 361.068 352.868 362.419 354.231 361.266V361.266C355.894 359.857 358.143 362.106 356.734 363.769V363.769C355.581 365.132 356.932 367.154 358.632 366.609V366.609C360.708 365.944 361.925 368.882 359.986 369.88V369.88C358.399 370.697 358.874 373.082 360.653 373.23V373.23C362.825 373.41 362.825 376.59 360.653 376.77V376.77C358.874 376.918 358.399 379.303 359.986 380.12V380.12C361.925 381.118 360.708 384.056 358.632 383.391V383.391C356.932 382.846 355.581 384.868 356.734 386.231V386.231C358.143 387.894 355.894 390.143 354.231 388.734V388.734C352.868 387.581 350.846 388.932 351.391 390.632V390.632C352.056 392.708 349.118 393.925 348.12 391.986V391.986C347.303 390.399 344.918 390.874 344.77 392.653V392.653C344.59 394.825 341.41 394.825 341.23 392.653V392.653C341.082 390.874 338.697 390.399 337.88 391.986V391.986C336.882 393.925 333.944 392.708 334.609 390.632V390.632C335.154 388.932 333.132 387.581 331.769 388.734V388.734C330.106 390.143 327.857 387.894 329.266 386.231V386.231C330.419 384.868 329.068 382.846 327.368 383.391V383.391C325.292 384.056 324.075 381.118 326.014 380.12V380.12C327.601 379.303 327.126 376.918 325.347 376.77V376.77C323.175 376.59 323.175 373.41 325.347 373.23V373.23C327.126 373.082 327.601 370.697 326.014 369.88V369.88C324.075 368.882 325.292 365.944 327.368 366.609V366.609C329.068 367.154 330.419 365.132 329.266 363.769V363.769C327.857 362.106 330.106 359.857 331.769 361.266V361.266C333.132 362.419 335.154 361.068 334.609 359.368V359.368C333.944 357.292 336.882 356.075 337.88 358.014V358.014C338.697 359.601 341.082 359.126 341.23 357.347V357.347Z" fill="#F4B542" stroke="#638A4E" stroke-width="2"/>
<path d="M137.37 292.486L31.0099 353.893" stroke="#D74A51" stroke-width="1.98087"/>
<path d="M145.597 323.189L22.7832 323.189" stroke="#D74A51" stroke-width="1.98087"/>
<path d="M137.37 353.893L31.0099 292.486" stroke="#D74A51" stroke-width="1.98087"/>
<path d="M114.894 376.369L53.4867 270.009" stroke="#D74A51" stroke-width="1.98087"/>
<path d="M84.1904 384.596L84.1904 261.782" stroke="#D74A51" stroke-width="1.98087"/>
<path d="M53.4868 376.369L114.894 270.009" stroke="#D74A51" stroke-width="1.98087"/>
<path d="M31.0105 353.893L137.371 292.486" stroke="#D74A51" stroke-width="1.98087"/>
<path d="M22.7832 323.189L145.597 323.189" stroke="#D74A51" stroke-width="1.98087"/>
<path d="M31.0105 292.486L137.371 353.893" stroke="#D74A51" stroke-width="1.98087"/>
<path d="M53.4868 270.009L114.894 376.369" stroke="#D74A51" stroke-width="1.98087"/>
<path d="M84.1904 261.782V384.596" stroke="#D74A51" stroke-width="1.98087"/>
<path d="M114.894 270.009L53.4867 376.369" stroke="#D74A51" stroke-width="1.98087"/>
<path d="M115.133 258.929C118.661 253.768 126.577 258.338 123.871 263.974V263.974C122.789 266.226 123.514 268.93 125.577 270.34V270.34C130.738 273.868 126.168 281.784 120.532 279.078V279.078C118.28 277.996 115.575 278.721 114.166 280.783V280.783C110.638 285.945 102.722 281.375 105.428 275.739V275.739C106.51 273.487 105.785 270.782 103.722 269.372V269.372C98.5611 265.845 103.131 257.929 108.767 260.635V260.635C111.019 261.717 113.724 260.992 115.133 258.929V258.929Z" fill="#EC6973"/>
<path d="M115.686 273.721C113.552 274.292 111.358 273.026 110.787 270.892C110.215 268.758 111.481 266.565 113.615 265.993C115.749 265.421 117.942 266.688 118.514 268.822C119.086 270.955 117.819 273.149 115.686 273.721Z" fill="#F4B542" stroke="#DC8433" stroke-width="2"/>
<path d="M143.593 284.427C149.228 281.721 153.798 289.637 148.637 293.164V293.164C146.574 294.574 145.85 297.278 146.931 299.531V299.531C149.637 305.166 141.721 309.736 138.194 304.575V304.575C136.784 302.512 134.08 301.788 131.827 302.869V302.869C126.192 305.575 121.622 297.659 126.783 294.132V294.132C128.846 292.722 129.57 290.018 128.489 287.765V287.765C125.783 282.13 133.698 277.56 137.226 282.721V282.721C138.636 284.784 141.34 285.508 143.593 284.427V284.427Z" fill="#EC6973"/>
<path d="M136.675 297.512C134.541 296.941 133.275 294.747 133.847 292.613C134.418 290.48 136.612 289.213 138.745 289.785C140.879 290.357 142.146 292.55 141.574 294.684C141.002 296.818 138.809 298.084 136.675 297.512Z" fill="#F4B542" stroke="#DC8433" stroke-width="2"/>
<path d="M155.49 320.738C161.724 321.212 161.724 330.352 155.49 330.826V330.826C152.999 331.016 151.019 332.996 150.83 335.487V335.487C150.355 341.721 141.215 341.721 140.741 335.487V335.487C140.551 332.996 138.571 331.016 136.08 330.826V330.826C129.847 330.352 129.847 321.212 136.08 320.738V320.738C138.571 320.548 140.551 318.568 140.741 316.077V316.077C141.215 309.843 150.355 309.843 150.83 316.077V316.077C151.019 318.568 152.999 320.548 155.49 320.738V320.738Z" fill="#EC6973"/>
<path d="M142.957 328.611C141.395 327.049 141.395 324.517 142.957 322.954C144.519 321.392 147.051 321.392 148.614 322.954C150.176 324.517 150.176 327.049 148.614 328.611C147.051 330.173 144.519 330.173 142.957 328.611Z" fill="#F4B542" stroke="#DC8433" stroke-width="2"/>
<path d="M147.637 358.132C152.799 361.659 148.228 369.575 142.593 366.869V366.869C140.341 365.788 137.636 366.512 136.226 368.575V368.575C132.699 373.736 124.783 369.166 127.489 363.531V363.531C128.57 361.278 127.846 358.574 125.783 357.164V357.164C120.622 353.637 125.192 345.721 130.828 348.427V348.427C133.08 349.508 135.784 348.784 137.194 346.721V346.721C140.722 341.56 148.637 346.13 145.931 351.765V351.765C144.85 354.018 145.575 356.722 147.637 358.132V358.132Z" fill="#EC6973"/>
<path d="M132.846 358.684C132.274 356.55 133.541 354.357 135.674 353.785C137.808 353.213 140.002 354.48 140.573 356.613C141.145 358.747 139.879 360.941 137.745 361.512C135.611 362.084 133.418 360.818 132.846 358.684Z" fill="#F4B542" stroke="#DC8433" stroke-width="2"/>
<path d="M122.138 386.59C124.844 392.226 116.928 396.796 113.401 391.635V391.635C111.991 389.572 109.287 388.847 107.034 389.929V389.929C101.399 392.635 96.8286 384.719 101.99 381.192V381.192C104.053 379.782 104.777 377.077 103.696 374.825V374.825C100.99 369.189 108.905 364.619 112.433 369.781V369.781C113.843 371.843 116.547 372.568 118.8 371.486V371.486C124.435 368.78 129.005 376.696 123.844 380.224V380.224C121.781 381.634 121.057 384.338 122.138 386.59V386.59Z" fill="#EC6973"/>
<path d="M109.052 379.673C109.624 377.539 111.818 376.273 113.951 376.844C116.085 377.416 117.352 379.609 116.78 381.743C116.208 383.877 114.015 385.144 111.881 384.572C109.747 384 108.481 381.807 109.052 379.673Z" fill="#F4B542" stroke="#DC8433" stroke-width="2"/>
<path d="M85.8279 398.487C85.3536 404.721 76.2133 404.721 75.739 398.487V398.487C75.5494 395.996 73.5696 394.016 71.0784 393.826V393.826C64.8448 393.352 64.8448 384.212 71.0784 383.738V383.738C73.5696 383.548 75.5494 381.568 75.739 379.077V379.077C76.2133 372.843 85.3536 372.843 85.8279 379.077V379.077C86.0175 381.568 87.9973 383.548 90.4885 383.738V383.738C96.7221 384.212 96.7221 393.352 90.4885 393.826V393.826C87.9973 394.016 86.0175 395.996 85.8279 398.487V398.487Z" fill="#EC6973"/>
<path d="M77.9543 385.954C79.5164 384.391 82.049 384.391 83.6111 385.954C85.1732 387.516 85.1732 390.048 83.6111 391.61C82.049 393.173 79.5164 393.173 77.9543 391.61C76.3922 390.048 76.3922 387.516 77.9543 385.954Z" fill="#F4B542" stroke="#DC8433" stroke-width="2"/>
<path d="M48.433 390.635C44.9055 395.796 36.9898 391.226 39.6958 385.59V385.59C40.7772 383.338 40.0526 380.634 37.9899 379.224V379.224C32.8286 375.696 37.3987 367.781 43.0343 370.487V370.487C45.2866 371.568 47.9911 370.843 49.4008 368.781V368.781C52.9284 363.619 60.8441 368.19 58.1381 373.825V373.825C57.0566 376.077 57.7813 378.782 59.844 380.192V380.192C65.0053 383.719 60.4352 391.635 54.7995 388.929V388.929C52.5473 387.847 49.8428 388.572 48.433 390.635V390.635Z" fill="#EC6973"/>
<path d="M47.8808 375.844C50.0147 375.272 52.2081 376.538 52.7798 378.672C53.3516 380.806 52.0853 382.999 49.9514 383.571C47.8175 384.143 45.6242 382.876 45.0524 380.743C44.4807 378.609 45.747 376.415 47.8808 375.844Z" fill="#F4B542" stroke="#DC8433" stroke-width="2"/>
<path d="M19.9739 365.137C14.3383 367.843 9.76815 359.928 14.9294 356.4V356.4C16.9921 354.99 17.7168 352.286 16.6353 350.034V350.034C13.9293 344.398 21.845 339.828 25.3726 344.989V344.989C26.7824 347.052 29.4868 347.776 31.7391 346.695V346.695C37.3747 343.989 41.9448 351.905 36.7836 355.432V355.432C34.7209 356.842 33.9962 359.547 35.0777 361.799V361.799C37.7837 367.434 29.868 372.005 26.3404 366.843V366.843C24.9306 364.781 22.2262 364.056 19.9739 365.137V365.137Z" fill="#EC6973"/>
<path d="M26.8915 352.052C29.0253 352.623 30.2917 354.817 29.7199 356.951C29.1481 359.085 26.9548 360.351 24.8209 359.779C22.6871 359.207 21.4207 357.014 21.9925 354.88C22.5643 352.746 24.7576 351.48 26.8915 352.052Z" fill="#F4B542" stroke="#DC8433" stroke-width="2"/>
<path d="M8.07616 328.827C1.84257 328.352 1.84258 319.212 8.07617 318.738V318.738C10.5674 318.548 12.5472 316.568 12.7368 314.077V314.077C13.2111 307.844 22.3514 307.844 22.8257 314.077V314.077C23.0152 316.568 24.9951 318.548 27.4863 318.738V318.738C33.7199 319.212 33.7199 328.352 27.4863 328.827V328.827C24.995 329.016 23.0152 330.996 22.8257 333.487V333.487C22.3514 339.721 13.2111 339.721 12.7368 333.487V333.487C12.5472 330.996 10.5674 329.016 8.07616 328.827V328.827Z" fill="#EC6973"/>
<path d="M20.6097 320.953C22.1718 322.515 22.1718 325.048 20.6097 326.61C19.0476 328.172 16.5149 328.172 14.9528 326.61C13.3907 325.048 13.3907 322.515 14.9528 320.953C16.5149 319.391 19.0476 319.391 20.6097 320.953Z" fill="#F4B542" stroke="#DC8433" stroke-width="2"/>
<path d="M15.9292 291.432C10.7679 287.905 15.338 279.989 20.9736 282.695V282.695C23.2259 283.777 25.9304 283.052 27.3401 280.989V280.989C30.8677 275.828 38.7834 280.398 36.0774 286.034V286.034C34.9959 288.286 35.7206 290.99 37.7833 292.4V292.4C42.9446 295.928 38.3745 303.843 32.7388 301.137V301.137C30.4866 300.056 27.7821 300.781 26.3723 302.843V302.843C22.8448 308.005 14.9291 303.434 17.6351 297.799V297.799C18.7165 295.547 17.9919 292.842 15.9292 291.432V291.432Z" fill="#EC6973"/>
<path d="M30.7204 290.88C31.2922 293.014 30.0258 295.207 27.892 295.779C25.7581 296.351 23.5648 295.085 22.993 292.951C22.4212 290.817 23.6875 288.624 25.8214 288.052C27.9553 287.48 30.1486 288.746 30.7204 290.88Z" fill="#F4B542" stroke="#DC8433" stroke-width="2"/>
<path d="M41.4283 262.974C38.7223 257.338 46.638 252.768 50.1655 257.929V257.929C51.5753 259.992 54.2798 260.717 56.5321 259.635V259.635C62.1677 256.929 66.7378 264.845 61.5765 268.373V268.373C59.5138 269.782 58.7892 272.487 59.8706 274.739V274.739C62.5766 280.375 54.6609 284.945 51.1334 279.784V279.784C49.7236 277.721 47.0191 276.996 44.7668 278.078V278.078C39.1312 280.784 34.5611 272.868 39.7224 269.34V269.34C41.7851 267.931 42.5098 265.226 41.4283 262.974V262.974Z" fill="#EC6973"/>
<path d="M54.514 269.891C53.9422 272.025 51.7489 273.292 49.615 272.72C47.4811 272.148 46.2148 269.955 46.7866 267.821C47.3583 265.687 49.5517 264.421 51.6856 264.992C53.8194 265.564 55.0858 267.757 54.514 269.891Z" fill="#F4B542" stroke="#DC8433" stroke-width="2"/>
<path d="M77.7387 251.077C78.2131 244.843 87.3533 244.843 87.8276 251.077V251.077C88.0172 253.568 89.997 255.548 92.4883 255.738V255.738C98.7218 256.212 98.7218 265.352 92.4883 265.827V265.827C89.997 266.016 88.0172 267.996 87.8276 270.487V270.487C87.3533 276.721 78.2131 276.721 77.7387 270.487V270.487C77.5492 267.996 75.5694 266.016 73.0781 265.827V265.827C66.8445 265.352 66.8445 256.212 73.0781 255.738V255.738C75.5694 255.548 77.5492 253.568 77.7387 251.077V251.077Z" fill="#EC6973"/>
<path d="M85.6124 263.611C84.0503 265.173 81.5176 265.173 79.9555 263.611C78.3934 262.048 78.3934 259.516 79.9555 257.954C81.5176 256.392 84.0503 256.392 85.6124 257.954C87.1745 259.516 87.1745 262.048 85.6124 263.611Z" fill="#F4B542" stroke="#DC8433" stroke-width="2"/>
<path d="M64.6539 280.38C63.4987 274.236 72.3275 271.87 74.3991 277.769V277.769C75.227 280.126 77.6517 281.526 80.1071 281.064V281.064C86.2511 279.909 88.6168 288.738 82.7183 290.809V290.809C80.361 291.637 78.9611 294.062 79.4228 296.517V296.517C80.578 302.661 71.7492 305.027 69.6776 299.129V299.129C68.8498 296.771 66.425 295.371 63.9696 295.833V295.833C57.8256 296.988 55.46 288.159 61.3584 286.088V286.088C63.7157 285.26 65.1156 282.835 64.6539 280.38V280.38Z" fill="#EC6973"/>
<path d="M75.5032 290.448C74.3986 292.362 71.9523 293.017 70.0391 291.912C68.1259 290.808 67.4704 288.362 68.575 286.448C69.6795 284.535 72.1259 283.88 74.0391 284.984C75.9522 286.089 76.6077 288.535 75.5032 290.448Z" fill="#F4B542" stroke="#DC8433" stroke-width="2"/>
<path d="M45.6539 299.38C44.4987 293.236 53.3275 290.87 55.3991 296.769V296.769C56.227 299.126 58.6517 300.526 61.1071 300.064V300.064C67.2511 298.909 69.6168 307.738 63.7183 309.809V309.809C61.361 310.637 59.9611 313.062 60.4228 315.517V315.517C61.578 321.661 52.7492 324.027 50.6776 318.129V318.129C49.8498 315.771 47.425 314.371 44.9696 314.833V314.833C38.8256 315.988 36.46 307.159 42.3584 305.088V305.088C44.7157 304.26 46.1156 301.835 45.6539 299.38V299.38Z" fill="#EC6973"/>
<path d="M56.5032 309.448C55.3986 311.362 52.9523 312.017 51.0391 310.912C49.1259 309.808 48.4704 307.362 49.575 305.448C50.6795 303.535 53.1259 302.88 55.0391 303.984C56.9522 305.089 57.6077 307.535 56.5032 309.448Z" fill="#F4B542" stroke="#DC8433" stroke-width="2"/>
<path d="M38.6539 325.38C37.4987 319.236 46.3275 316.87 48.3991 322.769V322.769C49.227 325.126 51.6517 326.526 54.1071 326.064V326.064C60.2511 324.909 62.6168 333.738 56.7183 335.809V335.809C54.361 336.637 52.9611 339.062 53.4228 341.517V341.517C54.578 347.661 45.7492 350.027 43.6776 344.129V344.129C42.8498 341.771 40.425 340.371 37.9696 340.833V340.833C31.8256 341.988 29.46 333.159 35.3584 331.088V331.088C37.7157 330.26 39.1156 327.835 38.6539 325.38V325.38Z" fill="#EC6973"/>
<path d="M49.5032 335.448C48.3986 337.362 45.9523 338.017 44.0391 336.913C42.1259 335.808 41.4704 333.362 42.575 331.448C43.6795 329.535 46.1259 328.88 48.0391 329.984C49.9522 331.089 50.6077 333.535 49.5032 335.448Z" fill="#F4B542" stroke="#DC8433" stroke-width="2"/>
<path d="M58.6539 345.38C57.4987 339.236 66.3275 336.87 68.3991 342.769V342.769C69.227 345.126 71.6517 346.526 74.1071 346.064V346.064C80.2511 344.909 82.6168 353.738 76.7183 355.809V355.809C74.361 356.637 72.9611 359.062 73.4228 361.517V361.517C74.578 367.661 65.7492 370.027 63.6776 364.129V364.129C62.8498 361.771 60.425 360.371 57.9696 360.833V360.833C51.8256 361.988 49.46 353.159 55.3584 351.088V351.088C57.7157 350.26 59.1156 347.835 58.6539 345.38V345.38Z" fill="#EC6973"/>
<path d="M69.5032 355.448C68.3986 357.362 65.9523 358.017 64.0391 356.913C62.1259 355.808 61.4704 353.362 62.575 351.448C63.6795 349.535 66.1259 348.88 68.0391 349.984C69.9522 351.089 70.6077 353.535 69.5032 355.448Z" fill="#F4B542" stroke="#DC8433" stroke-width="2"/>
<path d="M84.6539 353.38C83.4987 347.236 92.3275 344.87 94.3991 350.769V350.769C95.227 353.126 97.6517 354.526 100.107 354.064V354.064C106.251 352.909 108.617 361.738 102.718 363.809V363.809C100.361 364.637 98.9611 367.062 99.4228 369.517V369.517C100.578 375.661 91.7492 378.027 89.6776 372.129V372.129C88.8498 369.771 86.425 368.371 83.9696 368.833V368.833C77.8256 369.988 75.46 361.159 81.3584 359.088V359.088C83.7157 358.26 85.1156 355.835 84.6539 353.38V353.38Z" fill="#EC6973"/>
<path d="M95.5032 363.448C94.3986 365.362 91.9523 366.017 90.0391 364.913C88.1259 363.808 87.4704 361.362 88.575 359.448C89.6795 357.535 92.1259 356.88 94.0391 357.984C95.9522 359.089 96.6077 361.535 95.5032 363.448Z" fill="#F4B542" stroke="#DC8433" stroke-width="2"/>
<path d="M105.654 334.38C104.499 328.236 113.328 325.87 115.399 331.769V331.769C116.227 334.126 118.652 335.526 121.107 335.064V335.064C127.251 333.909 129.617 342.738 123.718 344.809V344.809C121.361 345.637 119.961 348.062 120.423 350.517V350.517C121.578 356.661 112.749 359.027 110.678 353.129V353.129C109.85 350.771 107.425 349.371 104.97 349.833V349.833C98.8256 350.988 96.46 342.159 102.358 340.088V340.088C104.716 339.26 106.116 336.835 105.654 334.38V334.38Z" fill="#EC6973"/>
<path d="M116.503 344.448C115.399 346.362 112.952 347.017 111.039 345.913C109.126 344.808 108.47 342.362 109.575 340.448C110.68 338.535 113.126 337.88 115.039 338.984C116.952 340.089 117.608 342.535 116.503 344.448Z" fill="#F4B542" stroke="#DC8433" stroke-width="2"/>
<path d="M111.654 308.38C110.499 302.236 119.328 299.87 121.399 305.769V305.769C122.227 308.126 124.652 309.526 127.107 309.064V309.064C133.251 307.909 135.617 316.738 129.718 318.809V318.809C127.361 319.637 125.961 322.062 126.423 324.517V324.517C127.578 330.661 118.749 333.027 116.678 327.129V327.129C115.85 324.771 113.425 323.371 110.97 323.833V323.833C104.826 324.988 102.46 316.159 108.358 314.088V314.088C110.716 313.26 112.116 310.835 111.654 308.38V308.38Z" fill="#EC6973"/>
<path d="M122.503 318.448C121.399 320.362 118.952 321.017 117.039 319.913C115.126 318.808 114.47 316.362 115.575 314.448C116.68 312.535 119.126 311.88 121.039 312.984C122.952 314.089 123.608 316.535 122.503 318.448Z" fill="#F4B542" stroke="#DC8433" stroke-width="2"/>
<path d="M92.6539 285.38C91.4987 279.236 100.328 276.87 102.399 282.769V282.769C103.227 285.126 105.652 286.526 108.107 286.064V286.064C114.251 284.909 116.617 293.738 110.718 295.809V295.809C108.361 296.637 106.961 299.062 107.423 301.517V301.517C108.578 307.661 99.7492 310.027 97.6776 304.129V304.129C96.8498 301.771 94.425 300.371 91.9696 300.833V300.833C85.8256 301.988 83.46 293.159 89.3584 291.088V291.088C91.7157 290.26 93.1156 287.835 92.6539 285.38V285.38Z" fill="#EC6973"/>
<path d="M103.503 295.448C102.399 297.362 99.9523 298.017 98.0391 296.912C96.1259 295.808 95.4704 293.362 96.575 291.448C97.6795 289.535 100.126 288.88 102.039 289.984C103.952 291.089 104.608 293.535 103.503 295.448Z" fill="#F4B542" stroke="#DC8433" stroke-width="2"/>
<path d="M78.7387 313.077C79.2131 306.843 88.3533 306.843 88.8276 313.077V313.077C89.0172 315.568 90.997 317.548 93.4883 317.738V317.738C99.7218 318.212 99.7218 327.352 93.4883 327.827V327.827C90.997 328.016 89.0172 329.996 88.8276 332.487V332.487C88.3533 338.721 79.2131 338.721 78.7387 332.487V332.487C78.5492 329.996 76.5694 328.016 74.0781 327.827V327.827C67.8445 327.352 67.8445 318.212 74.0781 317.738V317.738C76.5694 317.548 78.5492 315.568 78.7387 313.077V313.077Z" fill="#EC6973"/>
<path d="M86.6124 325.611C85.0503 327.173 82.5176 327.173 80.9555 325.611C79.3934 324.048 79.3934 321.516 80.9555 319.954C82.5176 318.392 85.0503 318.392 86.6124 319.954C88.1745 321.516 88.1745 324.048 86.6124 325.611Z" fill="#F4B542" stroke="#DC8433" stroke-width="2"/>
<path fill-rule="evenodd" clip-rule="evenodd" d="M211.191 221.196C228.34 229.994 247.654 247.222 264.226 270.033C294.681 311.949 287.997 342.479 260.861 335.95C258.891 363.624 227.584 360.698 197.13 318.781C181.213 296.874 170.974 274.153 167.471 255.531L153.963 199.354C152.569 193.557 158.889 188.974 163.966 192.102L211.191 221.196Z" fill="#00A878"/>
<path fill-rule="evenodd" clip-rule="evenodd" d="M255.175 253.25C252.107 272.279 241.69 295.971 225.117 318.781C194.663 360.698 163.563 363.775 161.386 335.95C134.458 342.628 127.566 311.949 158.021 270.033C173.938 248.125 192.382 231.366 209.01 222.28L258.264 192.073C263.346 188.956 269.658 193.551 268.252 199.346L255.175 253.25Z" fill="#00A878"/>
<path fill-rule="evenodd" clip-rule="evenodd" d="M238.281 304.988C219.236 307.951 193.485 305.365 166.669 296.652C117.393 280.641 104.856 252.014 130.647 241.346C115.974 217.799 143.022 201.764 192.298 217.775C218.052 226.143 239.691 238.506 253.47 251.513L297.418 289.021C301.954 292.892 299.534 300.314 293.588 300.768L238.281 304.988Z" fill="#00A878"/>
<path fill-rule="evenodd" clip-rule="evenodd" d="M183.855 304.91C175.152 287.712 169.654 262.422 169.654 234.227C169.654 182.415 193.006 161.645 211.122 182.877C228.983 161.646 252.59 182.415 252.59 234.227C252.59 261.306 247.519 285.706 239.407 302.83L217.315 356.218C215.036 361.728 207.229 361.72 204.96 356.206L183.855 304.91Z" fill="#00A878"/>
<path fill-rule="evenodd" clip-rule="evenodd" d="M167.113 253.123C180.779 239.532 203.132 226.488 229.948 217.775C279.224 201.764 306.193 217.555 291.599 241.346C317.31 251.771 304.853 280.641 255.576 296.652C229.822 305.02 205.05 307.737 186.257 305.314L128.655 300.801C122.711 300.335 120.306 292.908 124.849 289.047L167.113 253.123Z" fill="#00A878"/>
<path d="M204.538 230.789C205.468 223.624 215.841 223.624 216.77 230.789V230.789C217.439 235.945 223.796 238.011 227.367 234.233V234.233C232.331 228.982 240.723 235.079 237.263 241.422V241.422C234.774 245.986 238.702 251.394 243.813 250.437V250.437C250.914 249.107 254.119 258.972 247.592 262.07V262.07C242.895 264.299 242.895 270.983 247.592 273.212V273.212C254.119 276.31 250.914 286.176 243.813 284.845V284.845C238.702 283.888 234.774 289.296 237.263 293.86V293.86C240.723 300.203 232.331 306.3 227.367 301.05V301.05C223.796 297.272 217.439 299.337 216.77 304.493V304.493C215.841 311.658 205.468 311.658 204.538 304.493V304.493C203.87 299.337 197.513 297.272 193.941 301.05V301.05C188.978 306.3 180.586 300.203 184.046 293.86V293.86C186.535 289.296 182.606 283.888 177.496 284.845V284.845C170.395 286.176 167.189 276.31 173.716 273.212V273.212C178.413 270.983 178.413 264.299 173.716 262.07V262.07C167.189 258.972 170.395 249.107 177.496 250.437V250.437C182.606 251.394 186.535 245.986 184.046 241.422V241.422C180.586 235.079 188.978 228.982 193.941 234.233V234.233C197.513 238.011 203.87 235.945 204.538 230.789V230.789Z" fill="#97FBEF"/>
<path d="M238.541 251.688L182.953 283.782" stroke="#97FBEF" stroke-width="2" stroke-linecap="round"/>
<path d="M242.842 267.735L178.654 267.735" stroke="#97FBEF" stroke-width="2" stroke-linecap="round"/>
<path d="M238.541 283.782L182.953 251.688" stroke="#97FBEF" stroke-width="2" stroke-linecap="round"/>
<path d="M226.795 295.529L194.701 239.941" stroke="#97FBEF" stroke-width="2" stroke-linecap="round"/>
<path d="M210.748 299.829L210.748 235.641" stroke="#97FBEF" stroke-width="2" stroke-linecap="round"/>
<path d="M194.701 295.529L226.795 239.941" stroke="#97FBEF" stroke-width="2" stroke-linecap="round"/>
<path d="M182.955 283.782L238.543 251.688" stroke="#97FBEF" stroke-width="2" stroke-linecap="round"/>
<path d="M178.654 267.735H242.842" stroke="#97FBEF" stroke-width="2" stroke-linecap="round"/>
<path d="M182.953 251.688L238.541 283.782" stroke="#97FBEF" stroke-width="2" stroke-linecap="round"/>
<path d="M194.7 239.941L226.794 295.529" stroke="#97FBEF" stroke-width="2" stroke-linecap="round"/>
</svg>
